<svg xmlns="http://www.w3.org/2000/svg" xmlns:xlink="http://www.w3.org/1999/xlink" width="100" zoomAndPan="magnify" viewBox="0 0 75 112.499997" height="150" preserveAspectRatio="xMidYMid meet" version="1.0"><defs><clipPath id="60ad84df23"><path d="M 0.191406 3.394531 L 74.800781 3.394531 L 74.800781 111.664062 L 0.191406 111.664062 Z M 0.191406 3.394531 " clip-rule="nonzero"/></clipPath></defs><g clip-path="url(#60ad84df23)"><path fill="#5d6b86" d="M 70.109375 60.300781 C 68.789062 54.382812 61.363281 24.164062 46.292969 20.507812 C 41.546875 19.355469 38.292969 20.746094 36.132812 23.496094 L 36.132812 23.5 C 34.789062 25.222656 33.867188 27.476562 33.28125 29.980469 C 31.039062 30.632812 29.195312 29.6875 28.859375 28.105469 C 28.378906 25.824219 30.425781 23.480469 32.472656 22.640625 C 34.199219 21.933594 37.351562 21.5 39.519531 17.777344 C 41.019531 15.199219 40.441406 12.105469 39.945312 10.445312 C 41.492188 11.996094 42.726562 13.652344 43.492188 14.921875 C 43.4375 14.78125 42.027344 11.140625 38.960938 8.109375 C 43.550781 10.765625 47.195312 14.257812 47.453125 14.503906 C 44.875 11.398438 39.015625 5.488281 33.894531 3.984375 C 28.769531 2.472656 23.957031 4.1875 22.414062 5.46875 C 21.464844 6.261719 21.199219 6.914062 21.433594 7.355469 C 19.046875 8.15625 0.808594 14.351562 0.191406 16.875 C 0.191406 16.875 0.226562 16.871094 0.296875 16.863281 C 1.207031 16.75 7.71875 15.867188 16.726562 13.398438 C 16.726562 13.398438 16.8125 13.972656 19.972656 13.398438 C 23.136719 12.824219 28.316406 10.902344 31.027344 11.652344 C 33.738281 12.40625 33.011719 14.023438 32.289062 14.925781 C 31.566406 15.824219 29.972656 14.835938 27.066406 14.925781 C 24.261719 15.011719 18.78125 17.949219 17.75 27.617188 C 17.710938 27.972656 17.683594 28.335938 17.65625 28.703125 C 17.621094 29.203125 17.59375 29.699219 17.582031 30.1875 C 17.582031 30.1875 17.582031 30.1875 17.582031 30.191406 C 17.242188 40.050781 20.308594 48.289062 22.40625 53.351562 C 22.175781 52.722656 18.085938 41.367188 18.96875 30.589844 C 19.222656 31.757812 19.675781 33.214844 20.457031 34.941406 C 21.1875 39.664062 22.5 45.941406 24.828125 53.820312 C 24.664062 53.171875 22.417969 44.390625 21.40625 36.859375 C 21.785156 37.570312 22.222656 38.316406 22.71875 39.097656 C 23.640625 42.230469 24.949219 46.773438 26.78125 53.320312 C 26.628906 52.660156 25.246094 46.636719 24.230469 41.332031 C 24.1875 41.109375 24.144531 40.890625 24.105469 40.671875 C 24.195312 40.957031 24.292969 41.253906 24.402344 41.566406 C 25.566406 44.945312 27.710938 49.75 31.558594 54.628906 C 31.382812 54.359375 28.40625 49.769531 26.554688 44.320312 C 26.785156 44.601562 27.03125 44.890625 27.28125 45.179688 C 28.652344 48.027344 30.960938 51.859375 34.515625 55.175781 C 34.40625 55.035156 31.984375 51.808594 29.972656 48.113281 C 30.472656 48.632812 31 49.164062 31.550781 49.699219 C 31.550781 49.703125 31.550781 49.703125 31.550781 49.703125 C 31.730469 50.0625 37.066406 60.542969 46.824219 65.945312 L 46.824219 65.941406 C 47.265625 66.226562 47.710938 66.496094 48.164062 66.753906 C 48.578125 67.761719 48.980469 68.773438 49.359375 69.800781 L 49.675781 70.667969 C 49.78125 70.960938 49.878906 71.25 49.980469 71.542969 C 50.15625 72.058594 50.328125 72.578125 50.480469 73.101562 L 50.488281 73.15625 L 50.519531 73.355469 L 50.574219 73.769531 C 50.601562 74.054688 50.625 74.339844 50.648438 74.625 C 50.664062 74.910156 50.675781 75.199219 50.691406 75.488281 C 50.703125 75.78125 50.707031 76.070312 50.710938 76.359375 C 50.710938 76.503906 50.714844 76.648438 50.714844 76.792969 L 50.707031 77.234375 L 50.695312 78.109375 C 50.664062 78.691406 50.636719 79.277344 50.601562 79.863281 C 50.445312 82.199219 50.105469 84.535156 49.679688 86.851562 C 49.570312 87.429688 49.464844 88.011719 49.34375 88.585938 C 49.21875 89.164062 49.089844 89.738281 48.957031 90.3125 C 48.890625 90.597656 48.828125 90.886719 48.761719 91.171875 L 48.539062 92.03125 C 48.390625 92.601562 48.234375 93.167969 48.085938 93.742188 C 48.011719 94.027344 47.925781 94.308594 47.84375 94.59375 C 47.761719 94.875 47.671875 95.15625 47.589844 95.4375 C 47.417969 96.003906 47.246094 96.570312 47.070312 97.132812 C 46.859375 97.761719 46.640625 98.390625 46.421875 99.015625 C 46.410156 99.046875 46.316406 99.1875 46.132812 99.339844 C 45.949219 99.492188 45.675781 99.65625 45.304688 99.738281 C 44.710938 99.691406 44.113281 99.660156 43.519531 99.636719 C 42.265625 99.589844 41.011719 99.597656 39.753906 99.65625 L 38.8125 99.714844 C 38.5 99.734375 38.183594 99.769531 37.871094 99.796875 L 37.398438 99.84375 L 36.933594 99.90625 C 36.621094 99.945312 36.304688 99.980469 35.996094 100.035156 L 35.058594 100.203125 L 34.828125 100.246094 L 34.59375 100.300781 L 34.132812 100.40625 L 33.667969 100.515625 L 33.550781 100.542969 L 33.4375 100.574219 L 33.207031 100.644531 L 32.289062 100.914062 C 32.027344 100.992188 31.859375 101.242188 31.871094 101.503906 C 31.578125 101.679688 31.25 101.929688 31.25 102.191406 C 31.25 102.191406 31.640625 102.046875 32.078125 101.921875 C 32.21875 102.042969 32.421875 102.09375 32.617188 102.039062 L 32.652344 102.027344 L 33.519531 101.785156 L 33.738281 101.726562 L 33.847656 101.695312 L 33.957031 101.671875 L 34.839844 101.476562 L 35.0625 101.429688 L 35.285156 101.394531 L 36.183594 101.246094 C 37.382812 101.078125 38.59375 100.960938 39.8125 100.914062 C 40.855469 100.875 41.902344 100.871094 42.949219 100.902344 C 38.855469 101.558594 33.042969 102.789062 29.382812 104.832031 C 29.144531 104.96875 29.035156 105.25 29.105469 105.503906 C 28.824219 105.679688 28.566406 105.917969 28.566406 106.175781 C 28.566406 106.175781 29.007812 106.019531 29.433594 105.875 C 29.507812 105.910156 29.589844 105.929688 29.671875 105.929688 C 29.769531 105.929688 29.867188 105.90625 29.960938 105.855469 C 33.3125 103.984375 38.726562 102.800781 42.710938 102.136719 C 39.167969 103.234375 34.445312 104.9375 32.441406 106.707031 C 32.320312 106.8125 32.253906 106.960938 32.246094 107.109375 C 31.992188 107.234375 31.71875 107.460938 31.59375 107.886719 C 31.59375 107.886719 31.992188 107.65625 32.382812 107.519531 C 32.386719 107.523438 32.390625 107.53125 32.394531 107.535156 C 32.511719 107.664062 32.671875 107.730469 32.832031 107.730469 C 32.972656 107.730469 33.109375 107.679688 33.222656 107.582031 C 35.378906 105.671875 41.277344 103.757812 44.730469 102.757812 C 44.734375 102.757812 46.722656 102.6875 47.492188 102.347656 C 48.257812 102.011719 49.03125 101.542969 50.210938 101.527344 C 50.25 101.535156 50.292969 101.539062 50.332031 101.542969 L 51.125 101.652344 C 51.386719 101.695312 51.648438 101.730469 51.914062 101.773438 C 52.441406 101.855469 52.964844 101.949219 53.488281 102.042969 L 53.5 102.046875 C 53.804688 102.101562 54.101562 101.90625 54.171875 101.605469 C 54.175781 101.585938 54.179688 101.570312 54.179688 101.550781 C 54.730469 101.441406 55.339844 101.714844 55.371094 101.730469 C 55.050781 101.078125 54.539062 101.074219 54.125 101.207031 C 54.050781 101.058594 53.914062 100.941406 53.734375 100.898438 C 53.46875 100.835938 53.203125 100.769531 52.933594 100.714844 C 52.664062 100.660156 52.398438 100.601562 52.128906 100.554688 C 51.589844 100.453125 51.050781 100.355469 50.507812 100.28125 C 50.09375 100.21875 49.679688 100.167969 49.261719 100.117188 C 49.257812 100.117188 49.257812 100.113281 49.257812 100.113281 C 48.777344 99.933594 48.765625 99.292969 48.785156 99.1875 C 48.902344 98.691406 49.023438 98.199219 49.140625 97.707031 C 49.402344 96.535156 49.679688 95.367188 49.945312 94.203125 C 50.070312 93.613281 50.191406 93.03125 50.320312 92.445312 L 50.511719 91.570312 L 50.691406 90.6875 C 50.804688 90.097656 50.925781 89.515625 51.046875 88.925781 L 51.371094 87.160156 C 51.796875 84.800781 52.179688 82.429688 52.464844 80.039062 C 52.539062 79.441406 52.601562 78.839844 52.664062 78.242188 L 52.792969 76.882812 C 52.804688 76.734375 52.816406 76.582031 52.824219 76.429688 L 52.894531 75.519531 C 52.910156 75.210938 52.921875 74.90625 52.941406 74.601562 C 52.949219 74.292969 52.964844 73.984375 52.96875 73.671875 L 52.980469 73.199219 L 52.976562 72.957031 L 52.976562 72.832031 L 52.96875 72.6875 L 52.933594 72.484375 C 52.925781 72.441406 52.910156 72.398438 52.886719 72.355469 C 52.585938 71.8125 52.316406 71.257812 52.046875 70.703125 C 51.917969 70.421875 51.78125 70.144531 51.652344 69.867188 L 51.265625 69.019531 C 51.125 68.699219 50.980469 68.375 50.84375 68.050781 C 52.808594 68.855469 54.847656 69.34375 56.898438 69.382812 C 57.007812 69.636719 57.113281 69.890625 57.214844 70.140625 C 57.691406 71.277344 58.144531 72.425781 58.574219 73.582031 L 58.890625 74.449219 C 58.996094 74.742188 59.09375 75.03125 59.195312 75.324219 C 59.367188 75.839844 59.542969 76.359375 59.699219 76.882812 L 59.703125 76.9375 L 59.734375 77.136719 L 59.789062 77.554688 C 59.816406 77.835938 59.839844 78.121094 59.863281 78.40625 C 59.878906 78.695312 59.890625 78.984375 59.90625 79.273438 C 59.914062 79.5625 59.921875 79.851562 59.925781 80.144531 C 59.929688 80.289062 59.929688 80.433594 59.929688 80.578125 L 59.921875 81.015625 L 59.910156 81.890625 C 59.878906 82.472656 59.847656 83.058594 59.816406 83.644531 C 59.660156 85.984375 59.320312 88.316406 58.894531 90.632812 C 58.785156 91.214844 58.679688 91.792969 58.558594 92.367188 C 58.433594 92.945312 58.304688 93.519531 58.171875 94.09375 C 58.105469 94.382812 58.042969 94.671875 57.976562 94.957031 L 57.753906 95.8125 C 57.605469 96.382812 57.449219 96.953125 57.300781 97.523438 C 57.226562 97.808594 57.140625 98.09375 57.058594 98.375 C 56.976562 98.660156 56.886719 98.9375 56.800781 99.222656 C 56.632812 99.785156 56.460938 100.351562 56.285156 100.914062 C 56.171875 101.25 56.054688 101.585938 55.9375 101.925781 C 55.839844 102.214844 55.738281 102.507812 55.636719 102.800781 C 55.625 102.824219 55.53125 102.96875 55.347656 103.121094 C 55.164062 103.277344 54.890625 103.441406 54.519531 103.519531 C 53.925781 103.476562 53.328125 103.445312 52.734375 103.421875 C 51.480469 103.375 50.226562 103.378906 48.96875 103.4375 L 48.027344 103.496094 C 47.714844 103.519531 47.398438 103.554688 47.085938 103.578125 L 46.617188 103.625 L 46.144531 103.6875 C 45.835938 103.730469 45.519531 103.765625 45.210938 103.816406 L 44.273438 103.984375 L 44.042969 104.027344 L 43.808594 104.082031 L 43.347656 104.191406 L 42.882812 104.296875 L 42.765625 104.328125 L 42.652344 104.359375 L 42.421875 104.425781 L 41.507812 104.695312 C 41.242188 104.777344 41.074219 105.023438 41.085938 105.289062 C 40.792969 105.460938 40.464844 105.714844 40.464844 105.972656 C 40.464844 105.972656 40.855469 105.832031 41.292969 105.703125 C 41.433594 105.824219 41.636719 105.875 41.832031 105.820312 L 41.867188 105.808594 L 42.734375 105.570312 L 42.953125 105.507812 L 43.171875 105.453125 L 43.613281 105.359375 L 44.054688 105.261719 L 44.277344 105.210938 L 44.5 105.175781 L 45.398438 105.027344 C 46.597656 104.863281 47.808594 104.742188 49.027344 104.695312 C 50.070312 104.65625 51.117188 104.65625 52.164062 104.683594 C 48.070312 105.339844 42.257812 106.570312 38.597656 108.617188 C 38.359375 108.75 38.25 109.03125 38.320312 109.285156 C 38.039062 109.460938 37.78125 109.699219 37.78125 109.960938 C 37.78125 109.960938 38.21875 109.800781 38.648438 109.660156 C 38.722656 109.695312 38.804688 109.710938 38.886719 109.710938 C 38.984375 109.710938 39.082031 109.6875 39.175781 109.636719 C 42.527344 107.765625 47.9375 106.582031 51.921875 105.917969 C 48.382812 107.015625 43.65625 108.71875 41.65625 110.488281 C 41.535156 110.597656 41.46875 110.742188 41.464844 110.890625 C 41.207031 111.015625 40.933594 111.246094 40.804688 111.667969 C 40.804688 111.667969 41.207031 111.441406 41.597656 111.300781 C 41.601562 111.308594 41.605469 111.3125 41.609375 111.316406 C 41.726562 111.449219 41.886719 111.511719 42.046875 111.511719 C 42.1875 111.511719 42.328125 111.464844 42.4375 111.367188 C 44.59375 109.453125 50.492188 107.542969 53.945312 106.542969 C 53.945312 106.542969 55.9375 106.46875 56.703125 106.128906 C 57.472656 105.792969 58.246094 105.328125 59.425781 105.308594 C 59.464844 105.316406 59.507812 105.320312 59.546875 105.328125 L 60.339844 105.4375 C 60.601562 105.476562 60.863281 105.511719 61.128906 105.558594 C 61.65625 105.636719 62.179688 105.730469 62.703125 105.824219 L 62.714844 105.828125 C 63.015625 105.882812 63.316406 105.691406 63.386719 105.386719 C 63.390625 105.367188 63.394531 105.351562 63.394531 105.335938 C 63.945312 105.226562 64.554688 105.5 64.585938 105.511719 C 64.265625 104.863281 63.753906 104.855469 63.339844 104.992188 C 63.265625 104.839844 63.128906 104.722656 62.953125 104.683594 C 62.683594 104.617188 62.417969 104.554688 62.148438 104.5 C 61.882812 104.441406 61.613281 104.382812 61.34375 104.335938 C 60.804688 104.234375 60.265625 104.140625 59.722656 104.0625 C 59.308594 104 58.894531 103.949219 58.476562 103.898438 C 58.476562 103.898438 58.472656 103.898438 58.472656 103.898438 C 57.992188 103.71875 57.980469 103.074219 58 102.96875 C 58.117188 102.476562 58.238281 101.980469 58.355469 101.488281 C 58.617188 100.316406 58.894531 99.152344 59.160156 97.984375 C 59.28125 97.398438 59.40625 96.8125 59.535156 96.230469 L 59.726562 95.351562 L 59.902344 94.46875 C 60.019531 93.882812 60.140625 93.296875 60.261719 92.710938 L 60.585938 90.941406 C 61.011719 88.582031 61.394531 86.210938 61.679688 83.824219 C 61.75 83.222656 61.816406 82.621094 61.882812 82.023438 L 61.964844 81.121094 L 62.007812 80.667969 C 62.019531 80.515625 62.03125 80.363281 62.039062 80.210938 L 62.109375 79.300781 C 62.125 78.996094 62.136719 78.6875 62.15625 78.382812 C 62.167969 78.074219 62.179688 77.765625 62.183594 77.453125 L 62.195312 76.980469 L 62.191406 76.738281 L 62.191406 76.617188 L 62.183594 76.472656 L 62.148438 76.269531 C 62.140625 76.226562 62.125 76.179688 62.097656 76.140625 C 61.800781 75.59375 61.53125 75.039062 61.261719 74.484375 C 61.132812 74.203125 60.996094 73.929688 60.867188 73.648438 L 60.480469 72.804688 C 59.976562 71.679688 59.503906 70.542969 59.039062 69.402344 C 59.023438 69.359375 59.003906 69.3125 58.988281 69.269531 C 60.589844 69.0625 62.195312 68.554688 63.765625 67.6875 C 66.6875 71.929688 71.128906 77.824219 73.484375 78.6875 C 76.476562 79.777344 73.933594 68.074219 70.109375 60.300781 " fill-opacity="1" fill-rule="nonzero"/></g></svg>